<?xml version="1.0" encoding="UTF-8"?>
<svg width="24px" height="24px" viewBox="0 0 24 24" version="1.1" xmlns="http://www.w3.org/2000/svg" xmlns:xlink="http://www.w3.org/1999/xlink">
    <title>ic_copy</title>
    <g id="wavv网站-20230907-对话版" stroke="none" stroke-width="1" fill="none" fill-rule="evenodd">
        <g id="对话页面" transform="translate(-1535.000000, -209.000000)">
            <g id="ic_copy" transform="translate(1535.000000, 209.000000)">
                <rect id="矩形" transform="translate(12.000000, 12.000000) scale(1, -1) translate(-12.000000, -12.000000) " x="0" y="0" width="24" height="24"></rect>
                <g id="编组-4" transform="translate(1.000000, 1.000000)">
                    <path d="M15,3 C16.6568542,3 18,4.34314575 18,6 L18,20 C18,21.6568542 16.6568542,23 15,23 L4,23 C2.34314575,23 1,21.6568542 1,20 L1,6 C1,4.34314575 2.34314575,3 4,3 L15,3 Z M14.2257143,14.4285714 L4.77428571,14.4285714 C4.37979661,14.4285714 4.06,14.748368 4.06,15.1428571 C4.06,15.5373462 4.37979661,15.8571429 4.77428571,15.8571429 L4.77428571,15.8571429 L14.2257143,15.8571429 C14.6202034,15.8571429 14.94,15.5373462 14.94,15.1428571 C14.94,14.748368 14.6202034,14.4285714 14.2257143,14.4285714 L14.2257143,14.4285714 Z M14.2257143,9.42857143 L4.77428571,9.42857143 C4.37979661,9.42857143 4.06,9.74836804 4.06,10.1428571 C4.06,10.5373462 4.37979661,10.8571429 4.77428571,10.8571429 L4.77428571,10.8571429 L14.2257143,10.8571429 C14.6202034,10.8571429 14.94,10.5373462 14.94,10.1428571 C14.94,9.74836804 14.6202034,9.42857143 14.2257143,9.42857143 L14.2257143,9.42857143 Z" id="形状结合" fill="#FFFFFF"></path>
                    <path d="M10.5,0 L18,0 C19.6568542,-3.04359188e-16 21,1.34314575 21,3 L21,13 L21,13" id="矩形备份-10" stroke="#FFFFFF" stroke-linecap="round"></path>
                </g>
            </g>
        </g>
    </g>
</svg>