<?xml version="1.0" encoding="UTF-8"?>
<svg width="24px" height="24px" viewBox="0 0 24 24" version="1.1" xmlns="http://www.w3.org/2000/svg" xmlns:xlink="http://www.w3.org/1999/xlink">
    <title>ic_dow</title>
    <g id="wavv网站-20230907-对话版" stroke="none" stroke-width="1" fill="none" fill-rule="evenodd">
        <g id="对话页面" transform="translate(-592.000000, -307.000000)">
            <g id="ic_dow" transform="translate(592.000000, 307.000000)">
                <rect id="矩形" x="0" y="0" width="24" height="24"></rect>
                <path d="M6.40956801,9.84880952 L8.6062848,9.84880952 C9.15856955,9.84880952 9.6062848,9.40109427 9.6062848,8.84880952 L9.6062848,3 C9.6062848,2.44771525 10.0540001,2 10.6062848,2 L13.8065897,2 C14.3588744,2 14.8065897,2.44771525 14.8065897,3 L14.8065897,8.84880952 C14.8065897,9.40109427 15.2543049,9.84880952 15.8065897,9.84880952 L17.9303245,9.84880952 C18.4826092,9.84880952 18.9303245,10.2965248 18.9303245,10.8488095 C18.9303245,11.1179857 18.8218075,11.3757952 18.62931,11.5639454 L13.0332519,17.033624 C12.6525544,17.405724 12.0470813,17.4143503 11.6559377,17.0532467 L5.73123928,11.5835681 C5.32544333,11.2089375 5.30017884,10.5762767 5.67480946,10.1704808 C5.86411406,9.96542803 6.13049299,9.84880952 6.40956801,9.84880952 Z" id="路径-5" stroke="#6687D4" fill="#6D86CE"></path>
                <line x1="2.8997861" y1="21.5238095" x2="20.895508" y2="21.5238095" id="路径-6" stroke="#6D86CE" stroke-width="2" stroke-linecap="round"></line>
            </g>
        </g>
    </g>
</svg>