<?xml version="1.0" encoding="UTF-8"?>
<svg width="24px" height="24px" viewBox="0 0 24 24" version="1.1" xmlns="http://www.w3.org/2000/svg" xmlns:xlink="http://www.w3.org/1999/xlink">
    <title>ic_del</title>
    <g id="wavv网站-20230907-对话版" stroke="none" stroke-width="1" fill="none" fill-rule="evenodd">
        <g id="对话页面" transform="translate(-726.000000, -307.000000)">
            <g id="ic_del" transform="translate(726.000000, 307.000000)">
                <rect id="矩形" x="0" y="0" width="24" height="24"></rect>
                <path d="M10.186566,-0.0677360665 L13.6238211,-0.0677360665 C13.7342781,-0.0677360665 13.8238211,0.0218069836 13.8238211,0.132263934 L13.8238211,7.50499121 C13.8238211,7.61544816 13.7342781,7.70499121 13.6238211,7.70499121 L10.9014225,7.70499121 L10.9014225,7.70499121 L10.374762,7.70499121" id="矩形" stroke="#6D86CE" fill="#6D86CE" transform="translate(12.005194, 3.818628) rotate(-90.000000) translate(-12.005194, -3.818628) "></path>
                <path d="M19.5,7.5 L19.5,20 C19.5,21.1045695 18.6045695,22 17.5,22 L6.5,22 C5.3954305,22 4.5,21.1045695 4.5,20 L4.5,7.5 L19.5,7.5 Z M10,11 C9.75454011,11 9.55039163,11.1768752 9.50805567,11.4101244 L9.5,11.5 L9.5,18.5 C9.5,18.7761424 9.72385763,19 10,19 C10.2454599,19 10.4496084,18.8231248 10.4919443,18.5898756 L10.5,18.5 L10.5,11.5 C10.5,11.2238576 10.2761424,11 10,11 Z M14.5,11 C14.2238576,11 14,11.2238576 14,11.5 L14,11.5 L14,18.5 C14,18.7761424 14.2238576,19 14.5,19 C14.7761424,19 15,18.7761424 15,18.5 L15,18.5 L15,11.5 C15,11.2238576 14.7761424,11 14.5,11 Z" id="形状结合" fill="#6D86CE"></path>
                <line x1="2.53808594" y1="5.55413352" x2="21.5591708" y2="5.55413352" id="路径-7" stroke="#6D86CE" stroke-width="2" stroke-linecap="round"></line>
            </g>
        </g>
    </g>
</svg>