<?xml version="1.0" encoding="UTF-8"?>
<svg width="58px" height="58px" viewBox="0 0 58 58" version="1.1" xmlns="http://www.w3.org/2000/svg" xmlns:xlink="http://www.w3.org/1999/xlink">
    <title>ic_send</title>
    <defs>
        <linearGradient x1="27.7532217%" y1="95.5810142%" x2="86.8482732%" y2="6.80716489%" id="linearGradient-1">
            <stop stop-color="#3FC4E9" offset="0%"></stop>
            <stop stop-color="#C476E9" offset="100%"></stop>
        </linearGradient>
    </defs>
    <g id="wavv网站-20230907-对话版" stroke="none" stroke-width="1" fill="none" fill-rule="evenodd">
        <g id="对话页面" transform="translate(-1561.000000, -926.000000)">
            <g id="编组" transform="translate(267.000000, 919.000000)">
                <g id="ic_send" transform="translate(1294.000000, 7.000000)">
                    <path d="M0,0 L58,0 L58,58 L0,58 L0,0 Z" id="矩形-450"></path>
                    <path d="M8.874026,25.6997034 C8.82548527,26.0587388 8.96130608,26.4177616 9.2426841,26.650628 L16.5488067,32.7439705 C16.9175086,33.0544596 17.4511861,33.0641267 17.8393355,32.772993 L35.7136185,19.361438 L20.5755303,34.509745 C20.3814522,34.7038297 20.2746987,34.9658334 20.2746795,35.2472369 L20.2741423,43.1071285 C20.2741138,43.524382 20.5263722,43.9028039 20.9144905,44.0677381 C21.3026087,44.2326723 21.7489644,44.1356061 22.0497847,43.8444784 L25.7760825,40.1277565 C26.1545354,39.7395879 26.7658414,39.7104354 27.1830568,40.0597354 L34.4406666,46.1045633 C34.7123413,46.3374305 35.090763,46.4053296 35.4303837,46.2985671 C35.770005,46.1821011 36.0320117,45.9006796 36.1193641,45.5610487 L43.7115533,11.524617 C43.8086122,11.1364675 43.6824973,10.7386298 43.3817148,10.476654 C43.0809323,10.2146782 42.663697,10.1564852 42.294964,10.302064 L9.50479225,24.8845604 C9.16516893,25.0301372 8.93227064,25.3309638 8.874026,25.6997034 Z" id="路径" fill="url(#linearGradient-1)" transform="translate(26.304040, 28.285926) rotate(52.000000) translate(-26.304040, -28.285926) "></path>
                </g>
            </g>
        </g>
    </g>
</svg>